inDegrees=yes
name=ik_lifting_orientations
DataType=double
version=3
OpenSimVersion=4.5-2024-01-10-34fd6af
endheader
time	pelvis_tilt	pelvis_list	pelvis_rotation	pelvis_tx	pelvis_ty	pelvis_tz	hip_flexion_r	hip_adduction_r	hip_rotation_r	knee_angle_r	knee_angle_r_beta	ankle_angle_r	subtalar_angle_r	mtp_angle_r	hip_flexion_l	hip_adduction_l	hip_rotation_l	knee_angle_l	knee_angle_l_beta	ankle_angle_l	subtalar_angle_l	mtp_angle_l	lumbar_extension	lumbar_bending	lumbar_rotation	arm_flex_r	arm_add_r	arm_rot_r	elbow_flex_r	pro_sup_r	wrist_flex_r	wrist_dev_r	arm_flex_l	arm_add_l	arm_rot_l	elbow_flex_l	pro_sup_l	wrist_flex_l	wrist_dev_l
1.22	-8.867109481680654	34.22313276750148	-69.77730740596625	0	0.9399999998679526	0	43.92725640137956	-10.23023375960381	0	58.52824800745714	1.021510633153938	-5.0830151829568	0	0	43.92725640137956	-10.23023375960381	0	58.52824800745714	1.021510633153938	-5.0830151829568	0	0	69.2898859752151	-9.478574715688435	-18.39137745108532	-28.42617648484504	-16.67456537239558	16.58126537340797	28.57755557907646	4.121158024131771	0	0	0	-10.82883272806401	0	85.92206524579002	4.121158024131771	0	0
1.23	-8.704461794898961	33.61443800191368	-69.9186811358398	0	0.9399999998679526	0	43.94068361773653	-10.22346898477995	0	58.54655549693023	1.021830159123017	-5.080123936151268	0	0	43.94068361773653	-10.22346898477995	0	58.54655549693023	1.021830159123017	-5.080123936151268	0	0	67.22893988047355	-9.112685934978712	-18.50046684488809	-26.05181592913307	-17.56852258312879	17.45802244884938	32.07929452146551	4.081509017173168	0	0	0	-10.86073514605286	0	85.9612959883453	4.081509017173168	0	0
1.24	-8.562388334885188	32.93309198586795	-70.22179455445811	0	0.9399999998679526	0	43.95842867570781	-10.21482511531213	0	58.57085302809917	1.022254231042021	-5.076471147244535	0	0	43.95842867570781	-10.21482511531213	0	58.57085302809917	1.022254231042021	-5.076471147244535	0	0	65.13167481331826	-8.51814748551633	-18.54850065003837	-23.87294501380439	-17.8119820215086	17.87613113623467	33.65173843290825	4.028817412095551	0	0	0	-10.90329391188186	0	86.01343179705623	4.028817412095551	0	0
1.25	-8.415014152967618	32.1306801618848	-70.48576712478203	0	0.9399999998679526	0	43.97929672782936	-10.20486954262373	0	58.59934941205182	1.022751586766907	-5.072295214320146	0	0	43.97929672782936	-10.20486954262373	0	58.59934941205182	1.022751586766907	-5.072295214320146	0	0	62.82837876757517	-8.015999511790215	-18.67798022493665	-21.31895909978001	-18.60557643853211	18.64499944194214	37.74789480068809	3.966659840931916	0	0	0	-10.95359956771396	0	86.0749337580515	3.966659840931916	0	0
1.26	-8.282837828965807	31.26042739167563	-70.88039255616332	0	0.9399999998679526	0	44.00057061507894	-10.1949963682805	0	58.6284143380395	1.023258865422241	-5.068189964627237	0	0	44.00057061507894	-10.1949963682805	0	58.6284143380395	1.023258865422241	-5.068189964627237	0	0	60.34470570044488	-7.359663673661239	-18.69439600992839	-18.59468500329033	-19.39663176435202	19.16447945321117	41.89952683842512	3.902990040878307	0	0	0	-11.00529910150169	0	86.13793205283983	3.902990040878307	0	0
1.27	-8.192276416679029	30.39880803906702	-71.23150667713547	0	0.9399999998679526	0	44.01280051177938	-10.18924937793036	0	58.64494453272829	1.023547371745556	-5.065788206712146	0	0	44.01280051177938	-10.18924937793036	0	58.64494453272829	1.023547371745556	-5.065788206712146	0	0	58.00169021111635	-6.712361354200138	-18.73437896427503	-15.98445171094073	-20.13180479152013	19.50185064900654	46.25548953475721	3.866452156794375	0	0	0	-11.03493150638305	0	86.17408457146941	3.866452156794375	0	0
1.28	-8.163125516400788	29.45920192748265	-71.47826301368967	0	0.9399999998679526	0	44.02436275929865	-10.18388480647351	0	58.66056053610402	1.023819922420465	-5.06355555281315	0	0	44.02436275929865	-10.18388480647351	0	58.66056053610402	1.023819922420465	-5.06355555281315	0	0	55.65537179121667	-6.228029307262883	-18.89374218826425	-13.52438743161307	-20.62613648415741	19.77818627668711	50.8416175452776	3.831834161511282	0	0	0	-11.06304848907922	0	86.20833746385028	3.831834161511282	0	0
1.29	-8.083774777880178	28.5748000420312	-71.72499240830302	0	0.9399999998679526	0	44.03545108692394	-10.1788405749808	0	58.67556727637368	1.024081839448162	-5.061469563342277	0	0	44.03545108692394	-10.1788405749808	0	58.67556727637368	1.024081839448162	-5.061469563342277	0	0	53.35396034429042	-5.815818138494771	-18.99256045760846	-11.0594096038424	-21.06185355109741	19.98158290546616	55.45253016386081	3.798520609737996	0	0	0	-11.09017101861259	0	86.2412996904302	3.798520609737996	0	0
